<?xml version="1.0" encoding="UTF-8" standalone="no"?>
<!-- Created with Inkscape (http://www.inkscape.org/) -->

<svg
   width="300"
   height="100"
   viewBox="0 0 79.374998 26.458334"
   version="1.1"
   id="svg87402"
   inkscape:version="1.1.1 (3bf5ae0d25, 2021-09-20)"
   sodipodi:docname="prices.svg"
   xmlns:inkscape="http://www.inkscape.org/namespaces/inkscape"
   xmlns:sodipodi="http://sodipodi.sourceforge.net/DTD/sodipodi-0.dtd"
   xmlns="http://www.w3.org/2000/svg"
   xmlns:svg="http://www.w3.org/2000/svg">
  <sodipodi:namedview
     id="namedview87404"
     pagecolor="#ffffff"
     bordercolor="#666666"
     borderopacity="1.0"
     inkscape:pageshadow="2"
     inkscape:pageopacity="0.0"
     inkscape:pagecheckerboard="0"
     inkscape:document-units="mm"
     showgrid="false"
     inkscape:zoom="3.623347"
     inkscape:cx="254.04688"
     inkscape:cy="40.708219"
     inkscape:window-width="1920"
     inkscape:window-height="1016"
     inkscape:window-x="0"
     inkscape:window-y="1077"
     inkscape:window-maximized="1"
     inkscape:current-layer="layer1"
     inkscape:snap-global="true"
     units="px"
     inkscape:snap-grids="false">
    <inkscape:grid
       type="xygrid"
       id="grid122049" />
  </sodipodi:namedview>
  <defs
     id="defs87399" />
  <g
     inkscape:label="Layer 1"
     inkscape:groupmode="layer"
     id="layer1">
    <path
       style="fill:#ffffff;fill-opacity:1;stroke:#000000;stroke-width:0.3;stroke-linecap:butt;stroke-linejoin:miter;stroke-miterlimit:4;stroke-dasharray:none;stroke-opacity:1"
       d="m 11.953856,2.4329216 c 0.963205,0.06961 1.093645,0.712453 1.138952,1.487492 l 0.02728,3.472129 c -0.05976,1.02445 -0.491094,1.4576137 -1.025259,1.4554027 L 8.2801142,8.8588806 C 7.5939202,8.7399386 7.2455607,8.1993516 7.1279737,7.3707486 L 8.9052882,7.3566586 6.4442,7.3594586 C 6.0102357,7.2997086 5.5606071,7.3860237 5.3423218,5.9203057 L 8.6069022,5.8943442 5.1284643,5.9109506 C 4.7356198,5.9217446 4.2542319,6.0473626 3.7067027,4.2102966 L 8.2020834,4.2333334 3.3866685,4.2065286 C 2.9806627,4.0933382 2.5711581,4.0552023 2.2089194,2.4398352 Z"
       id="path87594"
       sodipodi:nodetypes="cccccccccccccccc" />
    <path
       id="path89474"
       style="fill:#1d1c1f;fill-opacity:1;stroke:#000000;stroke-width:0.0294464px;stroke-linecap:butt;stroke-linejoin:miter;stroke-opacity:1"
       d="m 32.053908,4.3852416 c -0.799663,-0.004 -1.642158,0.07579 -2.494585,0.26033 -1.364067,0.295294 -2.770387,0.757594 -3.821448,3.396591 -0.826918,2.0762274 -1.086436,4.5391194 -0.899186,7.8740744 0.144587,0.704728 0.284259,1.406084 0.590771,2.221908 0.814105,1.442891 1.628397,2.899022 2.672735,4.225 1.601296,1.56871 3.356841,2.025404 5.501848,1.88174 1.502021,-0.100597 2.931125,-0.323978 4.234687,-1.30575 1.082504,-1.151692 1.864984,-3.127019 2.265358,-6.1511 0.187611,-1.18581 0.191185,-2.615465 0.08024,-4.196814 C 39.949067,11.01211 39.59559,10.417227 38.591594,8.3397726 37.299849,6.2926106 36.59652,5.3627986 35.182622,4.8761206 34.299836,4.5764046 33.222646,4.3911896 32.053908,4.3852416 Z m 0.830768,6.3987964 c 0.146492,0.01117 0.273703,0.176656 0.31113,0.522398 -0.115491,1.81481 -0.369277,3.225437 -0.621025,4.642083 -0.411045,0.87441 -0.723457,1.201204 -0.924773,0.911644 0.212542,-1.716116 0.367922,-3.354513 0.688924,-5.218004 0.07637,-0.561362 0.331638,-0.874483 0.545744,-0.858121 z" />
    <path
       id="path89472"
       style="fill:#201b21;fill-opacity:1;stroke:#000000;stroke-width:0.0294464px;stroke-linecap:butt;stroke-linejoin:miter;stroke-opacity:1"
       d="m 22.14089,4.4263386 -3.634911,0.08435 -0.0486,0.775787 c -0.283116,-0.228108 -0.506582,-0.474835 -1.10826,-0.603482 -1.654486,-0.298064 -3.104698,-0.07995 -4.496029,0.286989 -1.578909,0.477745 -2.603481,1.656795 -3.1962298,3.38215 -0.816263,2.4711624 -0.767838,4.3706634 -0.910001,6.3961594 0.06571,1.861344 0.317241,3.510026 1.061326,4.595155 1.1828038,2.094432 2.6933928,3.73581 4.5960418,4.835213 1.114059,0.404721 3.079025,0.889053 4.753271,-0.364881 l 0.425104,0.60015 3.228532,-0.150991 0.507627,-6.000386 c 0.08616,-1.008542 0.54957,-1.013749 0.966892,-1.141568 l 0.265774,-2.801439 -0.899044,-1.41523 0.718464,-5.1734354 z m -5.093801,5.8885484 c 0.57165,-0.0088 0.793065,0.697589 1.100161,1.11866 l -1.455843,-0.105101 -0.435347,3.490657 c 0.180306,0.06006 0.331987,-0.113733 0.550175,0.256026 l -0.314993,1.679795 c -0.186067,0.390677 -0.37759,0.447393 -0.568851,0.520592 -0.1074,-0.06016 -0.199652,-0.222089 -0.281686,-0.452282 0.124597,-1.957607 0.409166,-3.695198 0.673676,-5.460355 0.09543,-0.459786 0.288466,-0.835862 0.676248,-1.044934 0.01918,-0.0018 0.03802,-0.0028 0.05646,-0.003 z" />
    <path
       style="color:#000000;fill:#ffffff;fill-opacity:1;stroke:none;stroke-width:0.111294;stroke-miterlimit:4;stroke-dasharray:none"
       d="m 15.782212,4.9179686 c -2.677283,0.02648 -4.178898,0.724205 -5.071642,2.040535 -1.0202778,1.504377 -1.2011418,3.7389304 -1.4745078,6.5146544 -0.262655,2.666967 0.392619,4.79188 1.7422888,5.987531 1.340381,1.187419 3.341469,1.470637 5.791608,0.622105 l 0.327386,0.225121 3.37077,-0.153492 0.612277,-5.244205 5.24e-4,-0.0068 c 0.01986,-0.287104 0.08207,-0.409949 0.173596,-0.497474 0.09152,-0.08752 0.23107,-0.130733 0.394738,-0.152969 l 0.11651,-0.01601 0.125338,-2.471364 -4.946484,0.02729 -0.02232,0.160578 -0.319466,2.280877 0.580584,0.545751 c 0.01547,0.985762 -0.180023,1.700262 -0.493064,2.199015 -0.32406,0.516303 -0.776718,0.81105 -1.25481,0.910723 -0.47809,0.09967 -0.978936,10e-4 -1.382486,-0.254247 -0.398093,-0.251852 -0.694183,-0.650364 -0.809106,-1.144506 -0.04925,-2.198754 -0.06227,-4.540323 0.966496,-7.7664724 l 0.0034,-0.01054 0.0026,-0.01129 c 0.06117,-0.27044 0.198538,-0.485727 0.398521,-0.661198 0.19998,-0.175473 0.459773,-0.303703 0.739594,-0.388324 0.559645,-0.169245 1.198557,-0.164703 1.596243,-0.09682 0.391973,0.06691 0.690533,0.267398 0.872497,0.623416 0.181963,0.356019 0.261507,0.893621 0.161352,1.69603 l -0.02953,0.2366684 3.187444,0.01679 0.633346,-5.0991114 -3.151066,-0.07478 -0.112552,0.643095 c -0.793849,-0.49731 -1.040033,-0.485281 -1.480812,-0.644932 l -0.01388,-0.005 -0.01424,-7.93e-4 c -0.432107,-0.02378 -0.838663,-0.0337 -1.221132,-0.02991 z m 0.0034,0.403279 c 0.373668,-0.0038 0.772421,0.006 1.196641,0.02912 0.486367,0.172682 0.662936,0.113483 1.56797,0.70633 l 0.150009,0.09839 0.138482,-0.79134 2.607041,0.06165 -0.534122,4.299635 -2.637114,-0.01364 c 0.06561,-0.752836 -0.01329,-1.349241 -0.229425,-1.772121 -0.23911,-0.467827 -0.621802,-0.708044 -1.062122,-0.783206 -0.42922,-0.07327 -1.083898,-0.07909 -1.684663,0.102592 -0.300381,0.09084 -0.587408,0.228113 -0.826215,0.437652 -0.238805,0.209537 -0.432103,0.49848 -0.518454,0.880286 l 0.006,-0.02178 c -1.056475,3.3130664 -1.04173,5.7696564 -0.991709,7.9852984 l 5.23e-4,0.02834 0.006,0.02676 c 0.142355,0.643484 0.512804,1.121756 0.968478,1.410035 0.455675,0.288279 1.00236,0.39378 1.531956,0.283371 0.529594,-0.110409 1.044671,-0.440102 1.419763,-1.037716 0.375095,-0.597614 0.602308,-1.460454 0.567798,-2.5876 l -0.0033,-0.10391 -0.547448,-0.514528 0.259138,-1.850047 4.422445,-0.02467 -0.08662,1.708099 c -0.140423,0.02839 -0.280334,0.07256 -0.403921,0.190751 -0.158035,0.151138 -0.271278,0.420347 -0.297137,0.793965 l 0.0013,-0.01364 -0.573561,4.912555 -3.078135,0.140112 -0.352778,-0.242703 -0.04736,0.01679 c -2.426584,0.853795 -4.371995,0.557143 -5.632953,-0.55992 -1.2609578,-1.117061 -1.8630498,-3.039449 -1.6122708,-5.585825 0.273768,-2.779799 0.463219,-4.9107354 1.3976138,-6.2884824 0.817595,-1.205527 2.239326,-1.893737 4.878232,-1.920628 z"
       id="path102076" />
    <path
       style="color:#000000;fill:#ffffff;fill-opacity:1;stroke-width:0.111294;-inkscape-stroke:none"
       d="m 31.958223,6.8732296 c -0.492111,0.0095 -0.995901,0.196603 -1.41202,0.534995 -0.415944,0.338247 -0.748888,0.834196 -0.867454,1.467233 -4.9e-5,2.69e-4 -1.29e-4,5.08e-4 -1.83e-4,7.95e-4 -0.733335,3.7294714 -0.679893,4.7333524 -0.787498,6.8368564 l -0.0015,0.02861 0.0041,0.02808 c 0.195966,1.353571 1.065366,2.114811 1.936238,2.285599 0.435435,0.08539 0.876549,0.02805 1.252287,-0.183667 0.375737,-0.211718 0.689735,-0.586059 0.838459,-1.125876 0.662654,-2.405173 0.912031,-4.548786 0.963976,-7.4043864 0.01565,-0.85977 -0.219871,-1.506126 -0.585442,-1.908034 -0.365576,-0.401908 -0.848958,-0.569697 -1.341069,-0.560184 z m 0.0036,0.403017 c 0.445926,-0.0087 0.870394,0.148481 1.17089,0.478845 0.300499,0.330365 0.489273,0.8238 0.475597,1.575597 -0.05142,2.8270364 -0.293829,4.9039294 -0.944349,7.2650634 -0.115303,0.418525 -0.358598,0.718059 -0.681428,0.899966 -0.322831,0.181908 -0.721468,0.237609 -1.115606,0.160315 -0.783583,-0.153671 -1.526461,-0.815824 -1.698348,-1.950015 0.105784,-2.094452 0.05162,-3.036276 0.77633,-6.7211474 l 2.63e-4,-0.0013 1.86e-4,-0.0013 c 0.09327,-0.498864 0.365169,-0.920908 0.735632,-1.22217 0.37046,-0.301262 0.834814,-0.47521 1.280741,-0.48383 z"
       id="path105782" />
    <path
       style="color:#000000;fill:#ffffff;fill-opacity:1;stroke-width:0.111294;-inkscape-stroke:none"
       d="m 32.124979,4.8985516 c -0.752712,-0.0041 -1.518684,0.04433 -2.290818,0.118074 l -0.0053,5.4e-4 -0.0049,0.0011 c -1.469687,0.298813 -2.430797,0.92447 -3.069852,1.766085 -0.639054,0.841616 -0.946487,1.889997 -1.130192,2.983532 l -2.61e-4,0.0016 -1.84e-4,0.0016 C 25.349707,11.525843 25.160253,12.601045 25.247643,14.98905 l 1.83e-4,0.005 2.61e-4,0.0048 c 0.162253,2.317438 0.874613,3.585912 2.110196,4.512164 l 0.0135,0.0099 0.01476,0.0058 c 2.202013,0.837482 4.482843,0.94305 6.835356,0.332961 l 0.01674,-0.0041 0.01549,-0.01029 c 0.792366,-0.518095 1.724765,-0.629255 2.589393,-2.808524 l 0.006,-0.01496 0.004,-0.01601 c 0.423287,-1.665374 0.712314,-3.689462 0.849085,-5.788121 l 1.83e-4,-0.0031 1.86e-4,-0.0029 c 0.04944,-1.110176 0.141626,-2.3921534 -0.258058,-3.5368944 -0.399685,-1.144741 -1.288229,-2.097048 -3.102628,-2.576579 l -0.0034,-7.95e-4 -0.0034,-7.93e-4 c -0.718487,-0.137098 -1.457789,-0.19372 -2.210502,-0.197835 z m -7.84e-4,0.403016 c 0.74215,0.004 1.468201,0.05997 2.170706,0.193637 1.766043,0.467278 2.550408,1.350538 2.903635,2.362216 0.353008,1.011053 0.278596,2.2055004 0.228702,3.3246274 -0.134498,2.061815 -0.419336,4.048468 -0.829095,5.666376 -0.815484,2.045717 -1.594107,2.075415 -2.434523,2.6162 -2.307581,0.596475 -4.536714,0.493031 -6.691113,-0.322729 -1.176097,-0.886347 -1.793182,-1.97304 -1.948482,-4.179464 -0.08548,-2.34558 0.09483,-3.34297 0.368807,-5.0988474 1.3e-5,-8.2e-5 -1.5e-5,-1.74e-4 0,-2.69e-4 0.176566,-1.05094 0.459634,-2.006391 1.046994,-2.779924 0.586702,-0.77267 1.487073,-1.372904 2.917863,-1.664806 0.766244,-0.07306 1.524435,-0.121086 2.266506,-0.117021 z"
       id="path105784" />
    <text
       xml:space="preserve"
       style="font-style:normal;font-variant:normal;font-weight:normal;font-stretch:normal;font-size:2.95968px;line-height:1.25;font-family:sans-serif;-inkscape-font-specification:'sans-serif, Normal';font-variant-ligatures:normal;font-variant-caps:normal;font-variant-numeric:normal;font-variant-east-asian:normal;letter-spacing:0px;word-spacing:0px;fill:#000000;fill-opacity:1;stroke:none;stroke-width:0.0369958"
       x="52.248405"
       y="13.365545"
       id="text113030"
       transform="scale(0.79093457,1.2643271)"><tspan
         sodipodi:role="line"
         id="tspan118410"
         x="52.248405"
         y="13.365545"
         style="stroke-width:0.0369958">INTERNATIONAL  FARES  CHART</tspan></text>
    <path
       style="fill:none;stroke:#000000;stroke-width:0.101885;stroke-linecap:butt;stroke-linejoin:miter;stroke-miterlimit:4;stroke-dasharray:none;stroke-opacity:1"
       d="M 64.079506,0.11807158 64.066658,13.67059"
       id="path118445"
       sodipodi:nodetypes="cc" />
    <path
       style="fill:none;stroke:#000000;stroke-width:0.10137;stroke-linecap:butt;stroke-linejoin:miter;stroke-miterlimit:4;stroke-dasharray:none;stroke-opacity:1"
       d="M 65.537344,13.687846 65.548734,0.12455795"
       id="path118447"
       sodipodi:nodetypes="cc" />
    <path
       style="color:#000000;fill:#000000;stroke-width:1.50819;-inkscape-stroke:none"
       d="m 64.480686,0.12014244 0.02725,13.57293256 h 0.62447 L 65.105156,0.12014244 Z"
       id="path118449" />
    <path
       style="fill:none;stroke:#000000;stroke-width:0.0816633;stroke-linecap:butt;stroke-linejoin:miter;stroke-miterlimit:4;stroke-dasharray:none;stroke-opacity:1"
       d="m 64.151408,17.829512 -0.01283,8.71566"
       id="path118445-5"
       sodipodi:nodetypes="cc" />
    <path
       style="fill:none;stroke:#000000;stroke-width:0.0812505;stroke-linecap:butt;stroke-linejoin:miter;stroke-miterlimit:4;stroke-dasharray:none;stroke-opacity:1"
       d="m 65.607743,26.556269 0.01139,-8.722586"
       id="path118447-6"
       sodipodi:nodetypes="cc" />
    <path
       style="color:#000000;fill:#000000;stroke-width:1.20885;-inkscape-stroke:none"
       d="m 64.552174,17.830845 0.02723,8.728787 h 0.623825 l -0.02722,-8.728787 z"
       id="path118449-9" />
  </g>
</svg>
