<?xml version="1.0" encoding="UTF-8" standalone="no"?>
<!-- Created with Inkscape (http://www.inkscape.org/) -->

<svg
   width="1000mm"
   height="400mm"
   viewBox="0 0 1000 400"
   version="1.1"
   id="svg5"
   inkscape:version="1.1.1 (3bf5ae0d25, 2021-09-20)"
   sodipodi:docname="go.svg"
   xmlns:inkscape="http://www.inkscape.org/namespaces/inkscape"
   xmlns:sodipodi="http://sodipodi.sourceforge.net/DTD/sodipodi-0.dtd"
   xmlns="http://www.w3.org/2000/svg"
   xmlns:svg="http://www.w3.org/2000/svg">
  <sodipodi:namedview
     id="namedview7"
     pagecolor="#ffffff"
     bordercolor="#666666"
     borderopacity="1.0"
     inkscape:pageshadow="2"
     inkscape:pageopacity="0.0"
     inkscape:pagecheckerboard="0"
     inkscape:document-units="mm"
     showgrid="false"
     inkscape:snap-global="false"
     inkscape:zoom="0.16013082"
     inkscape:cx="1679.8765"
     inkscape:cy="1376.9991"
     inkscape:window-width="1920"
     inkscape:window-height="1016"
     inkscape:window-x="0"
     inkscape:window-y="1077"
     inkscape:window-maximized="1"
     inkscape:current-layer="layer1" />
  <defs
     id="defs2">
    <inkscape:path-effect
       effect="fill_between_many"
       method="originald"
       linkedpaths="#path3071-6,0,1"
       id="path-effect3887"
       is_visible="true"
       lpeversion="0"
       join="true"
       close="true"
       autoreverse="true"
       applied="false" />
  </defs>
  <g
     inkscape:label="Layer 1"
     inkscape:groupmode="layer"
     id="layer1"
     transform="translate(429.7872,-59.851644)">
    <g
       id="g14696"
       transform="translate(9.1741898,3.947132)">
      <path
         d="m -172.9631,59.858744 -255.84094,1.233331 c 1.14632,14.430076 7.91868,30.797113 23.21255,34.116726 9.23734,2.371479 19.9836,-0.358 21.67222,11.891459 6.93573,13.50273 22.18507,19.38134 36.5601,20.32406 4.83583,12.92617 15.90686,24.63631 30.49951,24.85525 5.50763,-0.0655 12.44188,-2.0197 15.77234,0.32858 2.03078,1.43188 1.6186,5.493 1.93098,9.56608 6.21628,12.50348 21.04309,17.8433 34.31885,16.31598 25.29491,-0.57431 50.61058,-0.73188 75.89257,-1.56556 12.76619,-1.01917 27.38838,-8.6915 29.69677,-22.32592 5.26026,-18.12155 11.01694,-36.12062 15.96522,-54.31914 3.50409,-18.734496 -10.41585,-38.618119 -29.68017,-40.420846 z"
         id="path3889"
         style="fill:#de7933;fill-opacity:1;stroke-width:0.264574"
         sodipodi:nodetypes="ccccccscccccc" />
      <path
         id="path3071-6"
         style="color:#000000;fill:#000000;stroke-width:1;-inkscape-stroke:none"
         d="m -172.96308,59.851644 -256.76476,0.241565 c 3.34122,34.324235 22.99138,36.251881 41.51506,39.018159 4.77254,19.859372 22.30736,27.702082 40.85363,28.310312 4.46589,29.27808 45.29452,26.27494 45.29452,26.27494 3.79149,20.34723 17.83751,26.31686 37.22717,24.79431 25.29491,-0.57411 50.61053,-0.73242 75.89258,-1.56529 12.76648,-1.01924 27.38841,-8.69241 29.69665,-22.327 5.26037,-18.12285 11.0169,-36.12328 15.96541,-54.32308 3.50403,-18.735282 -10.415,-38.619865 -29.68026,-40.423916 z m -0.31626,5.003829 c 18.51038,1.787316 30.55217,23.469258 23.50591,40.378667 -5.32487,17.89271 -10.64973,35.78541 -15.97459,53.67812 -7.55233,12.30932 -22.85637,13.7271 -35.94418,13.40502 -23.99266,0.44574 -47.98532,0.89149 -71.97798,1.33723 -11.58351,-0.69208 -22.04188,-6.70998 -22.84295,-20.12909 l 43.75473,-0.78951 -3.44613,-5.59988 c -20.44908,-0.004 -44.94633,1.87193 -65.2943,-0.61647 -9.63525,-1.40996 -18.05644,-11.25075 -19.83237,-18.9961 27.26933,-0.54553 54.53864,-1.09105 81.80797,-1.63657 l -4.2432,-4.82001 c -26.8051,0.40068 -83.45585,1.35976 -83.45585,1.35976 -16.41867,-2.38078 -32.25717,-7.67057 -35.39248,-24.649202 38.10793,-1.581218 80.0641,-1.353279 113.47282,-1.812038 l -3.66994,-4.595298 c -36.9919,0.377603 -78.48395,0.919305 -115.47209,1.117022 -18.42875,-3.246691 -30.48861,-5.51372 -34.53053,-25.836971 85.26473,-0.481193 175.62802,-1.243163 249.53516,-1.79468 z"
         sodipodi:nodetypes="ccccccccccccccccccccccccccccc" />
      <g
         id="g6001" />
      <path
         style="fill:#e39e39;fill-opacity:1;stroke:none;stroke-width:0.264583px;stroke-linecap:butt;stroke-linejoin:miter;stroke-opacity:1"
         d="m -415.29515,70.771143 221.2012,-2.55316 -4.29385,6.656821 -211.41282,1.917145 c -3.31997,-1.110662 -4.67099,-3.611312 -5.49453,-6.020806 z"
         id="path6168"
         sodipodi:nodetypes="ccccc" />
      <path
         style="fill:#e39e39;fill-opacity:1;stroke:none;stroke-width:0.264583px;stroke-linecap:butt;stroke-linejoin:miter;stroke-opacity:1"
         d="m -373.34928,101.25598 122.19329,-1.909779 -5.15404,6.105089 -113.01448,0.82439 c -3.04726,-1.17633 -3.69053,-3.14297 -4.02477,-5.0197 z"
         id="path6170"
         sodipodi:nodetypes="ccccc" />
      <path
         style="fill:#e39e39;fill-opacity:1;stroke:none;stroke-width:0.264583px;stroke-linecap:butt;stroke-linejoin:miter;stroke-opacity:1"
         d="m -334.87315,130.62399 84.35318,-1.03336 -5.84335,5.96447 -71.74684,0.42387 c -5.25269,-1.09095 -5.86547,-3.07207 -6.76299,-5.35498 z"
         id="path6172"
         sodipodi:nodetypes="ccccc" />
      <path
         style="fill:#e39e39;fill-opacity:1;stroke:none;stroke-width:0.264583px;stroke-linecap:butt;stroke-linejoin:miter;stroke-opacity:1"
         d="m -289.4024,156.10964 41.62884,-0.28283 -4.49181,6.26771 -33.01512,0.40024 c -2.93402,-1.17831 -4.10355,-3.43118 -4.12191,-6.38512 z"
         id="path6174"
         sodipodi:nodetypes="ccccc" />
    </g>
    <path
       id="path49131"
       style="fill:#1d1d1f;fill-opacity:1;stroke:none;stroke-width:0.264583px;stroke-linecap:butt;stroke-linejoin:miter;stroke-opacity:1"
       d="m 95.715158,103.07907 c -27.760977,0.32776 -55.521793,0.65511 -83.282769,0.98288 -4.1629902,0.16015 -10.3779826,-0.16278 -14.3269163,0.0743 -0.8947118,2.2896 -1.3958078,3.42153 -1.7930299,6.81465 -68.1820348,-20.217663 -164.2913228,-9.50943 -209.3887628,39.99239 -23.22796,28.37842 -24.64557,42.74763 -30.38385,77.68914 -5.60821,39.64857 -10.46658,93.24742 17.97783,132.75273 9.26849,26.73387 55.12676,64.12621 78.0815,74.97333 68.985806,32.59884 141.5667521,0.51279 159.32816,1.86817 4.629654,2.5907 18.682655,12.92519 21.799376,17.67785 l 79.344514,-3.46438 c 4.91167,-33.41007 9.82333,-66.81999 14.73501,-100.23006 0.56323,-12.89185 5.71388,-28.74494 21.74803,-27.71923 2.31186,-16.1426 4.62363,-32.28544 6.93549,-48.42804 l -21.02558,-22.49993 c 4.93518,-31.78401 9.87063,-63.56831 14.80581,-95.35232 -18.18492,-18.37724 -36.36989,-36.75422 -54.554812,-55.13148 z M -34.591613,206.12962 c 17.30853,0.008 22.615446,8.58902 31.7179596,17.1328 l -40.0089266,1.47278 -12.148614,61.13685 11.624614,-1.07487 c 2.571218,0.78266 2.841194,2.92809 2.086179,5.68026 l -4.836398,25.20569 c -8.598744,12.88084 -15.879217,12.83268 -23.120035,13.71597 4.543721,-39.74867 11.662553,-74.61603 18.779215,-108.12984 2.532425,-6.2505 2.329854,-12.90689 15.906006,-15.13964 z"
       sodipodi:nodetypes="cccccccsccccccccccccccccccc" />
    <path
       id="path19758"
       style="fill:#1d1d1f;fill-opacity:1;stroke:none;stroke-width:0.264583px;stroke-linecap:butt;stroke-linejoin:miter;stroke-opacity:1"
       d="m 341.03609,99.318053 c -65.03391,-1.595502 -140.97013,10.672687 -161.98365,76.859557 -6.7074,27.17296 -11.86252,51.53713 -14.3459,81.51906 -3.13348,47.9507 10.28199,77.11816 30.73586,100.40041 25.94107,27.41033 45.62924,52.25327 92.58092,78.96158 42.0419,15.45352 88.08384,14.90692 134.98761,10.9115 44.78695,-8.25426 91.89712,-8.08622 120.39214,-75.40265 16.18872,-50.71078 24.87004,-101.18362 9.71103,-146.87785 C 537.56223,178.81126 501.10961,148.60709 464.27665,120.21807 429.89957,99.359048 392.41896,101.97395 354.57997,99.541296 350.02702,99.40376 345.5118,99.328163 341.03609,99.318053 Z m 31.83734,110.330217 c 2.63501,0.15355 4.80311,1.06987 4.76456,3.73879 -3.21855,23.94161 -6.43718,47.88346 -9.65573,71.82506 -0.92721,8.30353 -2.41639,16.69677 -6.48952,24.10759 -4.09823,8.20386 -12.29995,14.5851 -21.66638,14.94224 4.47244,-33.76049 8.94532,-67.52069 13.41779,-101.28116 1.51167,-5.76887 6.24705,-10.85329 12.06283,-12.49433 1.82956,-0.38238 4.93143,-0.99175 7.56645,-0.83819 z"
       sodipodi:nodetypes="cccccccscccsccccccs" />
    <path
       id="path17695-2"
       style="fill:#dfb89b;fill-opacity:1;stroke:none;stroke-width:0.290415px;stroke-linecap:butt;stroke-linejoin:miter;stroke-opacity:1"
       d="m 350.22779,103.69556 c -64.88944,-2.63563 -145.81218,10.5044 -166.21728,72.91609 -13.19276,35.83587 -17.33249,84.18876 -15.07349,112.20039 2.11671,26.24738 15.94827,47.73012 35.97974,63.78668 16.97942,15.20473 39.41397,21.17431 61.49444,23.9205 46.69039,6.01274 94.64961,7.14364 141.02292,-1.80816 36.70752,-7.58174 70.89772,-35.27833 77.97612,-73.2839 6.93253,-36.56869 15.20571,-73.64067 12.68759,-111.07694 -0.29845,-37.52903 -29.84725,-71.44217 -66.3975,-78.42415 -26.76827,-5.36162 -54.1164,-8.11995 -81.47254,-8.23051 z m 34.16123,71.36154 c 0.53141,5.23162 1.47796,10.29959 0.6537,15.61713 -5.98569,38.61611 -10.19249,95.89542 -16.37524,116.08283 -3.90242,13.58577 -18.11568,20.79831 -31.04616,23.70916 -10.14013,2.2827 -20.42035,0.28374 -30.52993,-1.11673 -22.90515,-3.17303 -34.54572,-22.99845 -31.02533,-44.37242 4.7924,-35.01776 8.33902,-68.31247 13.07932,-103.33732 8.86781,-37.53547 88.78733,-43.2014 95.24364,-6.58265 z"
       sodipodi:nodetypes="ccsccccccccscssccc" />
    <path
       id="path17695"
       style="fill:#db3d3e;fill-opacity:1;stroke:none;stroke-width:0.264583px;stroke-linecap:butt;stroke-linejoin:miter;stroke-opacity:1"
       d="m 347.99484,113.96729 c -25.34031,-0.0206 -50.71943,2.07281 -75.7287,5.53971 -25.22326,5.59932 -50.15707,17.67675 -65.17122,39.46581 -13.10496,25.07388 -20.35742,53.11676 -22.8322,81.27307 -0.9784,22.19356 -4.28272,44.97222 1.58905,66.76026 6.09078,26.33726 28.41411,46.07086 53.76262,53.68922 44.35843,9.42981 90.47721,11.54089 135.57104,6.30558 28.91999,-2.69594 60.21594,-10.8013 78.54818,-35.17357 15.17383,-18.06795 16.75879,-42.24923 21.27726,-64.39503 4.55197,-31.53576 9.9263,-63.83744 4.43384,-95.5859 -4.96954,-27.17957 -31.02613,-44.1157 -55.95319,-50.7354 -24.85456,-4.98831 -50.15634,-7.12312 -75.49668,-7.14375 z m -5.67923,27.29652 c 4.83817,0.002 9.66436,0.22172 14.40791,0.54415 15.9471,1.27352 32.52177,9.72252 38.43176,25.40517 3.61035,8.87769 4.9947,18.70561 2.93159,28.11043 -5.04127,35.90687 -10.08285,71.8142 -15.12414,107.72108 -4.4295,17.02837 -17.44811,32.10639 -34.92963,36.26702 -19.97229,4.84367 -41.67981,2.24832 -60.34154,-6.17945 -14.05624,-6.28642 -23.75122,-20.55138 -24.4688,-35.9296 -0.30335,-3.52242 -0.29366,-7.06749 -0.0589,-10.59367 4.24703,-32.05431 8.15156,-64.1734 12.61268,-96.18741 3.42172,-15.51958 9.87996,-32.1002 24.60159,-40.13708 12.80277,-7.06577 27.42295,-9.02605 41.93749,-9.02064 z" />
    <path
       style="fill:#dfb89b;fill-opacity:1;stroke:none;stroke-width:0.264583px;stroke-linecap:butt;stroke-linejoin:miter;stroke-opacity:1"
       d="m 59.581947,384.55094 c 5.399633,-32.94066 10.557108,-65.92581 16.108461,-98.8386 6.247745,-9.08149 6.871186,-8.06437 14.887671,-11.99501 l 7.006834,-44.7334 c -45.580011,0.47817 -91.1600222,0.95635 -136.740033,1.43452 l -7.919407,48.60427 c 21.378212,-1.98063 9.59269,22.30204 7.401563,33.25411 -2.858871,16.6693 -20.474691,24.90328 -36.04548,24.08406 -18.245296,0.13511 -42.049426,2.53964 -51.511966,-17.26201 -9.59235,-26.49609 -1.95517,-56.82988 3.83609,-83.07634 3.66286,-19.33704 6.97003,-39.75773 15.63141,-57.93551 6.19526,-14.31615 32.85041,-20.94722 53.178014,-21.18599 13.587999,0.71554 36.897103,-1.88134 39.567643,16.78158 0.841579,9.05121 1.026147,23.12737 1.440309,29.74629 28.98403,0.65553 63.147088,-0.34641 89.524566,-0.51651 L 91.33075,109.00032 3.7995462,110.63823 c -1.2121093,4.18261 -0.8677076,5.09224 -1.5009236,9.68998 C -48.07288,99.646125 -113.47179,107.32303 -157.27509,122.88048 c -43.25275,14.78007 -66.23264,43.60325 -74.2842,81.41168 -8.74539,36.47204 -13.79822,75.90661 -6.13914,113.15794 10.04349,33.74278 38.23198,57.92203 70.73891,66.6262 40.57909,11.71243 84.800174,7.81701 124.784432,-5.61005 3.42994,3.80792 8.978189,7.54431 8.978189,7.54431 0,0 8.706603,-0.52086 12.860143,-0.30593 26.6395672,-0.38456 53.279135,-0.76913 79.918703,-1.15369 z"
       id="path60277"
       sodipodi:nodetypes="cccccccccccccccccccccccccc" />
    <path
       style="fill:#db3d3e;fill-opacity:1;stroke:none;stroke-width:0.264583px;stroke-linecap:butt;stroke-linejoin:miter;stroke-opacity:1"
       d="m 61.81521,191.64597 13.134547,-72.39006 c -21.253511,-0.0759 -43.27423,-0.15185 -64.527741,-0.22777 -1.0304168,2.85019 -1.7876061,9.65692 -3.4018493,12.01277 -22.3265747,-9.85145 -47.4785977,-14.15995 -71.4334887,-14.49362 -14.422269,-0.20089 -30.046938,-0.44623 -43.449618,2.40532 -15.63153,1.78936 -30.97449,4.66515 -47.99474,12.37255 -9.40276,4.25792 -18.83692,8.41219 -27.38433,14.15146 -16.52368,11.09505 -28.5312,26.74143 -33.85979,44.97051 -12.32939,35.00157 -14.23323,71.68092 -12.85585,108.71438 2.37201,23.05145 12.34241,46.64511 32.8619,59.10069 10.8173,8.65582 23.12898,14.64939 36.81651,17.15135 37.3,9.56493 78.019477,6.65178 121.81196,-7.47514 l 8.796593,7.83268 74.405284,-2.32903 c 5.804001,-31.97012 10.849587,-64.13286 17.14946,-95.97683 4.012803,-9.12251 6.168108,-6.08751 14.624105,-11.33833 l 4.342562,-28.37133 C 44.1326,238.1597 7.4144758,238.56382 -29.303648,238.96795 l -4.382039,33.18103 c 17.132296,2.12845 10.916761,28.35523 8.13427,39.07037 -3.147648,14.9 -12.822989,25.44832 -26.453057,30.6835 -17.247221,4.22773 -35.51982,4.66724 -53.227306,3.42777 -19.38962,-0.53131 -39.0624,-14.50465 -40.6731,-34.83842 -2.99265,-26.94639 5.41905,-53.34883 9.84768,-79.6782 5.38689,-20.20605 7.29289,-42.32633 19.22985,-60.03193 14.1428,-19.77198 40.201155,-22.52603 62.562511,-22.46485 16.520715,0.60613 39.389807,-1.92806 49.2075888,14.43082 4.96463003,8.85012 4.049256,22.78107 4.016045,31.0588 19.9064582,-0.34961 42.9499582,-1.81126 62.8564152,-2.16087 z"
       id="path60279"
       sodipodi:nodetypes="ccccscsscccccccccccccccccccccc" />
  </g>
</svg>
