<?xml version="1.0" encoding="UTF-8" standalone="no"?>
<!-- Created with Inkscape (http://www.inkscape.org/) -->

<svg
   width="150mm"
   height="100mm"
   viewBox="0 0 150 100"
   version="1.1"
   id="svg402098"
   inkscape:version="1.1.1 (3bf5ae0d25, 2021-09-20)"
   sodipodi:docname="overseas.svg"
   xmlns:inkscape="http://www.inkscape.org/namespaces/inkscape"
   xmlns:sodipodi="http://sodipodi.sourceforge.net/DTD/sodipodi-0.dtd"
   xmlns="http://www.w3.org/2000/svg"
   xmlns:svg="http://www.w3.org/2000/svg">
  <sodipodi:namedview
     id="namedview402100"
     pagecolor="#ffffff"
     bordercolor="#666666"
     borderopacity="1.0"
     inkscape:pageshadow="2"
     inkscape:pageopacity="0.0"
     inkscape:pagecheckerboard="0"
     inkscape:document-units="mm"
     showgrid="false"
     inkscape:zoom="1.2810466"
     inkscape:cx="180.71162"
     inkscape:cy="143.24225"
     inkscape:window-width="1920"
     inkscape:window-height="1016"
     inkscape:window-x="0"
     inkscape:window-y="1077"
     inkscape:window-maximized="1"
     inkscape:current-layer="layer1" />
  <defs
     id="defs402095" />
  <g
     inkscape:label="Layer 1"
     inkscape:groupmode="layer"
     id="layer1"
     transform="translate(4.133461,-12.405682)">
    <text
       xml:space="preserve"
       style="font-style:normal;font-variant:normal;font-weight:bold;font-stretch:normal;font-size:14.0429px;line-height:1.25;font-family:sans-serif;-inkscape-font-specification:'sans-serif, Bold';font-variant-ligatures:normal;font-variant-caps:normal;font-variant-numeric:normal;font-variant-east-asian:normal;letter-spacing:0px;word-spacing:0px;fill:#000000;fill-opacity:1;stroke:none;stroke-width:0.351072"
       x="29.031534"
       y="32.625244"
       id="text403185"
       transform="scale(1.0033657,0.99664558)"><tspan
         sodipodi:role="line"
         id="tspan403183"
         style="font-style:normal;font-variant:normal;font-weight:bold;font-stretch:normal;font-size:14.0429px;font-family:sans-serif;-inkscape-font-specification:'sans-serif, Bold';font-variant-ligatures:normal;font-variant-caps:normal;font-variant-numeric:normal;font-variant-east-asian:normal;stroke-width:0.351072"
         x="29.031534"
         y="32.625244">OVERSEAS</tspan></text>
    <text
       xml:space="preserve"
       style="font-style:normal;font-weight:normal;font-size:7.07368px;line-height:1.25;font-family:sans-serif;letter-spacing:0px;word-spacing:0px;fill:#000000;fill-opacity:1;stroke:none;stroke-width:0.176842"
       x="43.736313"
       y="98.259666"
       id="text406523"
       transform="scale(0.92513716,1.0809208)"><tspan
         sodipodi:role="line"
         id="tspan406521"
         style="stroke-width:0.176842"
         x="43.736313"
         y="98.259666">SHIPPING AGENCY</tspan></text>
    <path
       style="fill:#2c7c97;fill-opacity:1;stroke:#b6c1bc;stroke-width:0.264583px;stroke-linecap:butt;stroke-linejoin:miter;stroke-opacity:1"
       d="m 70.172496,65.40884 -2.02734,-7.925646 c -1.147122,-3.270978 1.955555,-6.408332 0.901657,-10.275297 l -0.608944,-2.943194 0.860224,-3.255397 c -0.0624,-1.576607 0.302156,-2.330802 -0.830676,-5.969301 0.800002,-1.779851 2.622029,-2.868147 3.970208,-0.04432 -0.751362,2.22507 -1.182531,4.595467 -1.095839,6.097302 l 0.962181,2.856979 -0.734533,3.173382 c -0.993285,3.19974 1.163124,6.241872 0.73744,10.194886 z"
       id="path416517"
       sodipodi:nodetypes="cccccccccccc" />
    <path
       style="fill:#2c7c97;fill-opacity:1;stroke:#b6c1bc;stroke-width:0.264583px;stroke-linecap:butt;stroke-linejoin:miter;stroke-opacity:1"
       d="m 70.172496,65.40884 2.02734,7.925646 c 1.147122,3.270978 -1.955555,6.408332 -0.901657,10.275297 l 0.608944,2.943194 -0.860224,3.255397 c 0.0624,1.576607 -0.302156,2.330802 0.830676,5.969301 -0.800002,1.779851 -2.622029,2.868147 -3.970208,0.04432 0.751362,-2.22507 1.182531,-4.595467 1.095839,-6.097302 l -0.962181,-2.856979 0.734533,-3.173382 c 0.993285,-3.19974 -1.163124,-6.241872 -0.73744,-10.194886 z"
       id="path416517-5"
       sodipodi:nodetypes="cccccccccccc" />
    <path
       style="fill:#2c7c97;fill-opacity:1;stroke:#b6c1bc;stroke-width:0.264583px;stroke-linecap:butt;stroke-linejoin:miter;stroke-opacity:1"
       d="m 70.172496,65.40884 -7.877481,-2.207095 c -3.406311,-0.642052 -4.572001,-4.897726 -8.44784,-5.918506 l -2.853352,-0.944236 -2.389145,-2.372675 c -1.396581,-0.734263 -1.867456,-1.427076 -5.584904,-2.265264 -1.141395,-1.582747 -1.172874,-3.704817 1.946722,-3.460461 1.551286,1.763234 3.388525,3.321836 4.732499,3.997676 l 2.955306,0.595216 2.380963,2.222815 c 2.274414,2.46008 5.987182,2.113641 9.197751,4.458801 z"
       id="path416517-50"
       sodipodi:nodetypes="cccccccccccc" />
    <path
       style="fill:#2c7c97;fill-opacity:1;stroke:#b6c1bc;stroke-width:0.264583px;stroke-linecap:butt;stroke-linejoin:miter;stroke-opacity:1"
       d="m 70.172496,65.40884 7.877481,2.207095 c 3.406311,0.642052 4.572001,4.897726 8.44784,5.918506 l 2.853352,0.944236 2.389145,2.372675 c 1.396581,0.734263 1.867456,1.427076 5.584904,2.265264 1.141395,1.582747 1.172874,3.704817 -1.946722,3.460461 -1.551286,-1.763234 -3.388525,-3.321836 -4.732499,-3.997676 L 87.690691,77.984185 85.309728,75.76137 c -2.274414,-2.46008 -5.987182,-2.113641 -9.197751,-4.458801 z"
       id="path416517-5-7"
       sodipodi:nodetypes="cccccccccccc" />
    <path
       style="fill:#2c7c97;fill-opacity:1;stroke:#b6c1bc;stroke-width:0.264583px;stroke-linecap:butt;stroke-linejoin:miter;stroke-opacity:1"
       d="m 70.172496,65.40884 -5.850141,5.718551 c -2.259189,2.628926 -6.527555,1.510606 -9.349496,4.356791 l -2.244409,1.998958 -3.249369,0.882722 c -1.334181,0.842343 -2.169612,0.903727 -4.754228,3.704037 -1.941397,0.197104 -3.794903,-0.83667 -2.023486,-3.416141 2.302648,-0.461836 4.571056,-1.273631 5.828338,-2.099627 l 1.993125,-2.261762 3.115496,-0.950567 c 3.267699,-0.73966 4.824058,-4.128231 8.46031,-5.736085 z"
       id="path416517-3"
       sodipodi:nodetypes="cccccccccccc" />
    <path
       style="fill:#2c7c97;fill-opacity:1;stroke:#b6c1bc;stroke-width:0.264583px;stroke-linecap:butt;stroke-linejoin:miter;stroke-opacity:1"
       d="m 70.172496,65.40884 5.850141,-5.718551 c 2.259189,-2.628926 6.527555,-1.510606 9.349496,-4.356791 l 2.244409,-1.998958 3.249369,-0.882722 c 1.334181,-0.842343 2.169612,-0.903727 4.754228,-3.704037 1.941397,-0.197104 3.794903,0.83667 2.023486,3.416141 -2.302648,0.461836 -4.571056,1.273631 -5.828338,2.099627 l -1.993125,2.261762 -3.115496,0.950567 c -3.267699,0.73966 -4.824058,4.128231 -8.46031,5.736085 z"
       id="path416517-5-8"
       sodipodi:nodetypes="cccccccccccc" />
    <path
       id="path410149"
       style="fill:#2c7c97;fill-opacity:1;stroke:#b6c1bc;stroke-width:0.5;stroke-linecap:square;stroke-miterlimit:4;stroke-dasharray:none;stroke-opacity:1"
       d="M 70.183199,42.743742 A 24.374536,23.289829 0 0 0 45.808975,66.033793 24.374536,23.289829 0 0 0 70.183199,89.323844 24.374536,23.289829 0 0 0 94.557938,66.033793 24.374536,23.289829 0 0 0 70.183199,42.743742 Z m 0,4.096391 A 19.387714,19.19372 0 0 1 89.571158,66.033793 19.387714,19.19372 0 0 1 70.183199,85.227454 19.387714,19.19372 0 0 1 50.795752,66.033793 19.387714,19.19372 0 0 1 70.183199,46.840133 Z" />
    <ellipse
       style="fill:#2c7c97;fill-opacity:1;stroke:#b6c1bc;stroke-width:0.5;stroke-linecap:square;stroke-miterlimit:4;stroke-dasharray:none;stroke-opacity:1"
       id="path416358"
       cx="70.183449"
       cy="66.033791"
       rx="8.205019"
       ry="8.0000172" />
    <ellipse
       style="fill:#2c7c97;fill-opacity:1;stroke:#b6c1bc;stroke-width:0.5;stroke-linecap:square;stroke-miterlimit:4;stroke-dasharray:none;stroke-opacity:1"
       id="path416358-8"
       cx="70.183449"
       cy="66.033791"
       rx="5.6895027"
       ry="5.5160127" />
  </g>
</svg>
