<?xml version="1.0" encoding="UTF-8" standalone="no"?>
<!-- Created with Inkscape (http://www.inkscape.org/) -->

<svg
   width="150mm"
   height="100mm"
   viewBox="0 0 150 100"
   version="1.1"
   id="svg18412"
   inkscape:version="1.1.1 (3bf5ae0d25, 2021-09-20)"
   sodipodi:docname="railway.svg"
   xmlns:inkscape="http://www.inkscape.org/namespaces/inkscape"
   xmlns:sodipodi="http://sodipodi.sourceforge.net/DTD/sodipodi-0.dtd"
   xmlns="http://www.w3.org/2000/svg"
   xmlns:svg="http://www.w3.org/2000/svg">
  <sodipodi:namedview
     id="namedview18414"
     pagecolor="#ffffff"
     bordercolor="#666666"
     borderopacity="1.0"
     inkscape:pageshadow="2"
     inkscape:pageopacity="0.0"
     inkscape:pagecheckerboard="0"
     inkscape:document-units="mm"
     showgrid="false"
     inkscape:zoom="1.4142136"
     inkscape:cx="353.90693"
     inkscape:cy="150.26019"
     inkscape:window-width="1920"
     inkscape:window-height="1016"
     inkscape:window-x="0"
     inkscape:window-y="1077"
     inkscape:window-maximized="1"
     inkscape:current-layer="layer1" />
  <defs
     id="defs18409" />
  <g
     inkscape:label="Layer 1"
     inkscape:groupmode="layer"
     id="layer1"
     transform="translate(-65.19812,-68.356934)">
    <path
       id="path39021"
       style="fill:#99babf;fill-opacity:1;stroke:none;stroke-width:0.31083px;stroke-linecap:butt;stroke-linejoin:miter;stroke-opacity:1"
       d="m 128.99368,86.548937 c -0.3721,0.02299 -0.87616,0.541179 -1.51807,2.222738 -1.58014,4.139217 8.24346,22.312585 8.21539,22.489925 -0.0281,0.17735 -0.94614,0.67884 -1.1738,0.56285 -0.22766,-0.11599 -15.00288,-20.163643 -15.00288,-20.163643 l -1.76192,1.444264 15.25882,19.915719 c 0.13194,0.50318 -0.13221,0.81522 -0.78958,0.68467 l -19.84512,-14.615019 -2.15763,2.855619 21.05946,13.10254 c 0.26241,0.82092 -0.12941,0.94541 -0.61049,1.13483 0.1904,-0.27493 -23.75436,-8.57847 -23.75436,-8.57847 l -0.84042,2.8337 23.92075,7.17137 c 0.17315,0.31903 0.28198,0.79688 -0.0569,1.11593 l -24.99836,-0.15716 -0.005,2.7935 24.76841,-0.51106 c 0.16068,0.26429 0.55598,0.81631 0.0436,1.19999 l -24.2977,6.46111 0.98746,2.70884 c 0,0 23.42096,-7.24347 23.60731,-7.19756 0.18639,0.0458 0.71753,0.52104 0.43687,0.89238 -0.28067,0.37134 -19.90261,13.43999 -19.90261,13.43999 l 2.5497,2.68872 c 0,0 17.98514,-14.13871 18.35972,-14.15815 0.37456,-0.0195 0.7316,0.47053 0.68611,0.87837 -0.0454,0.40785 -13.67902,18.87958 -13.67902,18.87958 l 2.52973,0.94721 12.19119,-17.35492 c 0.12682,-0.15757 1.6336,-1.05547 1.46181,0.9393 l -6.9103,21.46291 2.59871,0.76021 6.36333,-19.60018 c 1.04721,-0.60004 1.82302,0.69624 1.82302,0.69624 l -0.20814,20.51937 2.98896,-1.01117 -0.32068,-19.42536 c 0.66794,-0.91029 1.20687,-0.79672 1.86538,-0.4666 l 6.8032,19.0477 2.60658,-1.31878 -7.38225,-19.5551 c 0,0 0.14947,-1.99322 1.30692,-1.24447 l 13.1738,17.64607 1.87265,-2.35126 -14.19272,-17.10943 c -0.006,-0.80164 0.53089,-1.51734 0.93843,-1.51309 l 19.81607,14.08627 1.24278,-2.19776 -19.8082,-13.40343 c -0.10503,-0.38693 -0.0325,-1.55864 0.7321,-1.50092 l 23.48149,7.57584 1.06731,-2.5127 -24.13796,-7.2341 c 0,0 -0.0229,-0.96925 0.20209,-1.20792 l 24.69219,-0.3405 0.17123,-2.29767 -25.23795,0.33442 c 0,0 -0.28041,-1.03837 -0.13069,-1.31635 l 23.40404,-6.90455 -0.80111,-2.32812 -23.25397,7.39247 c -0.89957,0.19711 -1.15699,-0.84827 -0.46106,-1.28832 l 20.27585,-13.83166 -2.33671,-2.002232 -19.45546,14.472482 c -0.54583,0.0796 -0.98729,-0.0343 -0.96144,-1.0794 l 13.90532,-18.453787 -2.491,-1.330963 c 0,0 -12.96653,18.23429 -13.13751,18.78456 -0.171,0.55025 -1.37044,-0.30213 -1.37044,-0.30213 l 7.47119,-22.391257 -1.87083,-1.119595 -7.4246,23.133182 c -0.7758,0.16406 -1.03326,0.19335 -1.11208,-0.22721 l 0.0955,-23.466375 -2.89275,0.110861 c 0,0 0.89937,23.373344 0.81683,23.646074 -0.0825,0.27274 -1.01566,0.31444 -1.17804,0.21806 -0.16237,-0.0964 -7.51596,-23.190428 -7.51596,-23.190428 0,0 -0.2621,-1.024653 -0.80593,-0.991063 z m 14.13325,33.392793 c 0.0319,1.53577 -1.59912,3.53881 -3.16794,3.5908 -1.56884,0.052 -3.18293,-1.86757 -3.21445,-3.37933 -0.0315,-1.51178 1.62177,-3.06545 3.07908,-3.11373 1.4573,-0.0484 3.27129,1.3665 3.30331,2.90226 z m -2.96277,4.53873 c 0.82449,5e-5 1.66076,0.79093 1.66062,1.74056 -1.5e-4,0.94938 -0.83634,1.69798 -1.66062,1.69802 -0.82429,-4e-5 -1.69862,-0.76959 -1.69877,-1.71897 -1.4e-4,-0.94963 0.87427,-1.71956 1.69877,-1.71961 z"
       sodipodi:nodetypes="sssscccccccccccccccccccsccscccccccccccccccccccccccccccccccccccccccccccscccccccsccszzzzzcscsc" />
    <path
       id="path22680"
       style="fill:#99babf;fill-opacity:1;stroke-width:0.126466;stroke-linecap:square"
       d="m 140.19816,83.732161 a 38.582366,37.153025 0 0 0 -38.58238,37.153059 38.582366,37.153025 0 0 0 38.58238,37.15305 38.582366,37.153025 0 0 0 38.58238,-37.15305 38.582366,37.153025 0 0 0 -38.58238,-37.153059 z m 0,3.852793 a 33.704756,33.300087 0 0 1 33.70505,33.300266 33.704756,33.300087 0 0 1 -33.70505,33.29965 33.704756,33.300087 0 0 1 -33.70444,-33.29965 33.704756,33.300087 0 0 1 33.70444,-33.300266 z" />
    <path
       style="fill:#99babf;fill-opacity:1;stroke:none;stroke-width:0.31083px;stroke-linecap:butt;stroke-linejoin:miter;stroke-opacity:1"
       d="m 117.24516,94.088629 45.90598,0.177979 c -3.57036,-4.486019 -10.87351,-8.556127 -23.10964,-9.055729 -8.76806,0.514383 -16.25288,2.429535 -22.79634,8.87775 z"
       id="path54494"
       sodipodi:nodetypes="cccc" />
    <ellipse
       style="fill:none;fill-opacity:1;stroke:#c8dadc;stroke-width:0.822354;stroke-linecap:square;stroke-miterlimit:4;stroke-dasharray:none;stroke-opacity:1"
       id="path22680-2"
       cx="140.19815"
       cy="120.88522"
       rx="33.704762"
       ry="33.300091" />
    <path
       id="path60669-5"
       style="fill:none;stroke:#c8dadc;stroke-width:0.822354;stroke-linecap:square"
       d="m 146.4735,120.86726 c 0,0.90537 -2.03088,2.17436 -2.43625,3.65458 -0.77589,2.83323 -2.19965,5.87197 -3.90871,5.87197 -1.67724,0 -3.21986,-2.92671 -4.10448,-5.71363 -0.48771,-1.53647 -2.10126,-3.13808 -2.10126,-4.07568 0,-2.63824 3.49527,-5.73542 6.09722,-5.73542 2.60196,0 6.45348,3.35994 6.45348,5.99818 z"
       sodipodi:nodetypes="sssssss" />
    <path
       id="path75682"
       style="fill:none;fill-opacity:1;stroke:#c8dadc;stroke-width:0.822354;stroke-linecap:square;stroke-miterlimit:4;stroke-dasharray:none;stroke-opacity:1"
       d="m 140.19816,112.96719 a 8.2957848,7.8357247 0 0 0 -8.29587,7.83593 8.2957848,7.8357247 0 0 0 3.57526,6.44161 5.2869505,7.915667 0 0 0 4.89849,4.95045 5.2869505,7.915667 0 0 0 4.97655,-5.25318 8.2957848,7.8357247 0 0 0 3.14144,-6.13888 8.2957848,7.8357247 0 0 0 -8.29587,-7.83593 z" />
    <text
       xml:space="preserve"
       style="font-style:normal;font-weight:normal;font-size:7.82397px;line-height:1.25;font-family:sans-serif;letter-spacing:0px;word-spacing:0px;fill:#000000;fill-opacity:1;stroke:none;stroke-width:0.1956"
       x="122.79253"
       y="95.474007"
       id="text18927"
       transform="scale(0.90732468,1.1021413)"><tspan
         sodipodi:role="line"
         id="tspan18925"
         style="stroke-width:0.1956"
         x="122.79253"
         y="95.474007">INTERNATIONAL</tspan></text>
    <text
       xml:space="preserve"
       style="font-style:normal;font-variant:normal;font-weight:bold;font-stretch:normal;font-size:19.8487px;line-height:1.25;font-family:sans-serif;-inkscape-font-specification:'sans-serif, Bold';font-variant-ligatures:normal;font-variant-caps:normal;font-variant-numeric:normal;font-variant-east-asian:normal;letter-spacing:0px;word-spacing:0px;fill:#000000;fill-opacity:1;stroke:none;stroke-width:0.496219"
       x="115.21155"
       y="106.14604"
       id="text19525"
       transform="scale(0.81733737,1.223485)"><tspan
         sodipodi:role="line"
         id="tspan19523"
         style="font-style:normal;font-variant:normal;font-weight:bold;font-stretch:normal;font-size:19.8487px;font-family:sans-serif;-inkscape-font-specification:'sans-serif, Bold';font-variant-ligatures:normal;font-variant-caps:normal;font-variant-numeric:normal;font-variant-east-asian:normal;stroke-width:0.496219"
         x="115.21155"
         y="106.14604">RAILWAYS</tspan></text>
    <text
       xml:space="preserve"
       style="font-style:normal;font-weight:normal;font-size:8.09703px;line-height:1.25;font-family:sans-serif;letter-spacing:0px;word-spacing:0px;fill:#000000;fill-opacity:1;stroke:none;stroke-width:0.202426"
       x="122.28156"
       y="127.5629"
       id="text20299"
       transform="scale(0.89171145,1.121439)"><tspan
         sodipodi:role="line"
         id="tspan20297"
         style="stroke-width:0.202426"
         x="122.28156"
         y="127.5629">BOOKING OFFICE</tspan></text>
  </g>
</svg>
