<?xml version="1.0" encoding="UTF-8" standalone="no"?>
<!-- Created with Inkscape (http://www.inkscape.org/) -->

<svg
   width="150mm"
   height="100mm"
   viewBox="0 0 150 100"
   version="1.1"
   id="svg250084"
   inkscape:version="1.1.1 (3bf5ae0d25, 2021-09-20)"
   sodipodi:docname="bdc.svg"
   xmlns:inkscape="http://www.inkscape.org/namespaces/inkscape"
   xmlns:sodipodi="http://sodipodi.sourceforge.net/DTD/sodipodi-0.dtd"
   xmlns="http://www.w3.org/2000/svg"
   xmlns:svg="http://www.w3.org/2000/svg">
  <sodipodi:namedview
     id="namedview250086"
     pagecolor="#ffffff"
     bordercolor="#666666"
     borderopacity="1.0"
     inkscape:pageshadow="2"
     inkscape:pageopacity="0.0"
     inkscape:pagecheckerboard="0"
     inkscape:document-units="mm"
     showgrid="false"
     inkscape:zoom="0.84166667"
     inkscape:cx="151.48515"
     inkscape:cy="122.9703"
     inkscape:window-width="1920"
     inkscape:window-height="1016"
     inkscape:window-x="0"
     inkscape:window-y="1077"
     inkscape:window-maximized="1"
     inkscape:current-layer="layer1" />
  <defs
     id="defs250081" />
  <g
     inkscape:label="Layer 1"
     inkscape:groupmode="layer"
     id="layer1"
     transform="translate(-10.86948,-14.81933)">
    <text
       xml:space="preserve"
       style="font-style:normal;font-variant:normal;font-weight:bold;font-stretch:normal;font-size:13.4042px;line-height:1.25;font-family:Carlito;-inkscape-font-specification:'Carlito, Bold';font-variant-ligatures:normal;font-variant-caps:normal;font-variant-numeric:normal;font-variant-east-asian:normal;letter-spacing:0px;word-spacing:0px;fill:#873d50;fill-opacity:1;stroke:none;stroke-width:0.335106"
       x="34.860538"
       y="52.011627"
       id="text258082"
       transform="scale(1.2665453,0.78954933)"><tspan
         sodipodi:role="line"
         style="font-style:normal;font-variant:normal;font-weight:bold;font-stretch:normal;font-size:13.4042px;font-family:Carlito;-inkscape-font-specification:'Carlito, Bold';font-variant-ligatures:normal;font-variant-caps:normal;font-variant-numeric:normal;font-variant-east-asian:normal;fill:#873d50;fill-opacity:1;stroke-width:0.335106"
         x="34.860538"
         y="52.011627"
         id="tspan258084">DE CHANGE</tspan></text>
    <text
       xml:space="preserve"
       style="font-style:normal;font-variant:normal;font-weight:bold;font-stretch:normal;font-size:13.4042px;line-height:1.25;font-family:Carlito;-inkscape-font-specification:'Carlito, Bold';font-variant-ligatures:normal;font-variant-caps:normal;font-variant-numeric:normal;font-variant-east-asian:normal;letter-spacing:0px;word-spacing:0px;fill:#873d50;fill-opacity:1;stroke:none;stroke-width:0.335106"
       x="44.373745"
       y="38.211063"
       id="text258082-5"
       transform="scale(1.2665453,0.78954933)"><tspan
         sodipodi:role="line"
         style="font-style:normal;font-variant:normal;font-weight:bold;font-stretch:normal;font-size:13.4042px;font-family:Carlito;-inkscape-font-specification:'Carlito, Bold';font-variant-ligatures:normal;font-variant-caps:normal;font-variant-numeric:normal;font-variant-east-asian:normal;fill:#873d50;fill-opacity:1;stroke-width:0.335106"
         x="44.373745"
         y="38.211063"
         id="tspan258084-1">BUREAU</tspan></text>
    <path
       style="fill:#1c6c84;fill-opacity:1;stroke:none;stroke-width:0.264583px;stroke-linecap:butt;stroke-linejoin:miter;stroke-opacity:1"
       d="m 92.319711,64.897359 9.869219,0.547624 C 105.56292,51.587795 96.235563,43.042695 79.634596,46.814502 67.802407,50.62349 66.932643,59.318222 71.367097,69.459559 h -4.894824 l 2.270518,4.934583 4.711776,0.0022 1.772597,3.602421 -4.554106,-0.148791 2.092116,4.898583 4.345137,-0.334912 c 3.675016,9.143844 -2.002184,13.858683 -10.860189,17.067162 l -0.0166,5.925045 c 10.737178,-4.10749 17.968776,-1.38142 29.440732,0.21969 2.600602,-0.22802 4.906856,-0.19116 7.944916,-2.40133 l -0.0249,-7.78654 c -3.46286,2.861501 -9.924206,1.144486 -16.150108,-0.432281 -1.44668,-0.292493 -3.050696,-0.454917 -4.385179,-0.07044 3.298697,-4.234416 5.048115,-8.173089 4.034059,-12.454974 l 9.499865,0.277988 -1.581791,-4.869936 -8.415959,0.05834 -1.564701,-3.703253 8.239957,0.277122 -1.85535,-4.96369 -9.085982,0.01836 c -4.637754,-6.745757 -7.069707,-15.752421 0.251453,-18.629933 12.218044,-3.057927 12.395215,7.046619 9.739147,13.952405 z"
       id="path285208"
       sodipodi:nodetypes="ccccccccccccccccccccccccccccc" />
    <path
       style="fill:#8fb2bb;fill-opacity:1;stroke:none;stroke-width:0.264583px;stroke-linecap:butt;stroke-linejoin:miter;stroke-opacity:1"
       d="m 93.616868,64.23569 c 1.168139,-3.299756 1.222919,-7.039407 0.12235,-10.974621 l 1.567269,1.33202 c 0.465815,3.224739 0.509451,6.237731 -0.197936,9.743859 z"
       id="path289518"
       sodipodi:nodetypes="ccccc" />
    <path
       style="fill:#8fb2bb;fill-opacity:1;stroke:none;stroke-width:0.264583px;stroke-linecap:butt;stroke-linejoin:miter;stroke-opacity:1"
       d="M 98.524957,50.415558 C 91.707004,43.306837 61.310852,45.319269 72.480484,69.648126 l 0.337099,0.89142 -5.014833,-0.0037 1.614979,2.969977 h 1.388727 l -1.10324,-1.897805 4.63689,-0.09651 C 64.77034,54.089799 78.867589,42.683064 98.524957,50.415558 Z"
       id="path289520"
       sodipodi:nodetypes="ccccccccc" />
    <path
       style="fill:#8fb2bb;fill-opacity:1;stroke:none;stroke-width:0.264583px;stroke-linecap:butt;stroke-linejoin:miter;stroke-opacity:1"
       d="m 83.061544,71.855426 7.457915,-0.02979 -0.505137,-1.31581 -7.491235,0.03802 z"
       id="path289522"
       sodipodi:nodetypes="ccccc" />
    <path
       style="fill:#8fb2bb;fill-opacity:1;stroke:none;stroke-width:0.264583px;stroke-linecap:butt;stroke-linejoin:miter;stroke-opacity:1"
       d="m 86.278903,78.871233 7.783754,-0.0053 0.316447,1.004181 -7.638366,0.06724 z"
       id="path289524"
       sodipodi:nodetypes="ccccc" />
    <path
       style="fill:#8fb2bb;fill-opacity:1;stroke:none;stroke-width:0.264583px;stroke-linecap:butt;stroke-linejoin:miter;stroke-opacity:1"
       d="m 73.975573,73.774277 2.113252,4.849759 -3.965702,0.0064 1.285565,3.241014 1.041119,-0.04888 -0.875065,-2.220864 c -1.398069,-0.03318 2.438801,-0.04654 3.90731,-0.07562 l -2.323478,-5.702691 z"
       id="path289526"
       sodipodi:nodetypes="ccccccccc" />
    <path
       style="fill:#8fb2bb;fill-opacity:1;stroke:none;stroke-width:0.264583px;stroke-linecap:butt;stroke-linejoin:miter;stroke-opacity:1"
       d="m 78.348709,81.262071 c 4.634146,9.112459 0.574686,15.586787 -10.324691,19.576019 l -0.120139,2.79073 -0.887389,0.49557 0.101804,-3.98255 c 13.836875,-5.414722 13.513723,-12.098914 10.2723,-19.044734 z"
       id="path289528"
       sodipodi:nodetypes="ccccccc" />
    <path
       style="fill:#8fb2bb;fill-opacity:1;stroke:none;stroke-width:0.264583px;stroke-linecap:butt;stroke-linejoin:miter;stroke-opacity:1"
       d="m 82.277874,96.326193 c 0.552201,-0.47688 3.520876,-0.665524 4.726389,-0.355617 5.835373,1.552205 11.508851,2.803779 15.666937,1.241337 l -0.0872,0.894964 c -2.892032,0.80553 -7.119767,0.819724 -15.550276,-1.051705 -2.211338,-0.457814 -4.305655,0.06776 -6.427313,0.363583 z"
       id="path289530"
       sodipodi:nodetypes="ccccccc" />
  </g>
</svg>
