<?xml version="1.0" encoding="UTF-8" standalone="no"?>
<!-- Created with Inkscape (http://www.inkscape.org/) -->

<svg
   width="150mm"
   height="88.370834mm"
   viewBox="0 0 150 88.370834"
   version="1.1"
   id="svg98844"
   inkscape:version="1.1.1 (3bf5ae0d25, 2021-09-20)"
   sodipodi:docname="casino.svg"
   xmlns:inkscape="http://www.inkscape.org/namespaces/inkscape"
   xmlns:sodipodi="http://sodipodi.sourceforge.net/DTD/sodipodi-0.dtd"
   xmlns="http://www.w3.org/2000/svg"
   xmlns:svg="http://www.w3.org/2000/svg">
  <sodipodi:namedview
     id="namedview98846"
     pagecolor="#ffffff"
     bordercolor="#666666"
     borderopacity="1.0"
     inkscape:pageshadow="2"
     inkscape:pageopacity="0.0"
     inkscape:pagecheckerboard="0"
     inkscape:document-units="mm"
     showgrid="false"
     inkscape:zoom="1.4142136"
     inkscape:cx="263.39727"
     inkscape:cy="107.83378"
     inkscape:window-width="1920"
     inkscape:window-height="1016"
     inkscape:window-x="0"
     inkscape:window-y="1077"
     inkscape:window-maximized="1"
     inkscape:current-layer="layer1" />
  <defs
     id="defs98841" />
  <g
     inkscape:label="Layer 1"
     inkscape:groupmode="layer"
     id="layer1"
     transform="translate(-78.627068,-55.365349)">
    <rect
       style="fill:#18481e;fill-opacity:1;stroke:none;stroke-width:0.86014;stroke-linecap:square"
       id="rect110889"
       width="164.74309"
       height="39.136189"
       x="72.126778"
       y="85.550064" />
    <ellipse
       style="fill:#ffffff;fill-opacity:1;stroke:none;stroke-width:1;stroke-linecap:square;stroke-miterlimit:4;stroke-dasharray:none;stroke-opacity:1"
       id="path114757"
       ry="21.439951"
       rx="20.347622"
       cy="104.57196"
       cx="151.68123" />
    <ellipse
       style="fill:#000000;fill-opacity:1;stroke:none;stroke-width:1;stroke-linecap:square;stroke-miterlimit:4;stroke-dasharray:none;stroke-opacity:1"
       id="path132160"
       cx="151.6615"
       cy="104.6105"
       rx="19.046947"
       ry="20.300053" />
    <path
       style="fill:#741e26;fill-opacity:1;stroke:none;stroke-width:0.264583px;stroke-linecap:butt;stroke-linejoin:miter;stroke-opacity:1"
       d="m 145.70975,107.26322 -9.99841,3.86745 1.70505,3.51618 8.71245,-6.49904 0.93084,1.12957 -8.21287,8.23536 2.89604,2.10324 6.10242,-9.38292 1.37226,0.34845 -4.35219,10.3416 2.97088,1.36964 2.2765,-10.83908 1.51025,-0.61493 -0.49295,11.69368 3.61397,-0.37402 -1.95854,-10.71509 1.13064,-0.69113 3.81246,10.16514 2.92308,-1.68725 -5.43466,-9.13706 1.35269,-0.98195 6.76544,7.83313 2.47901,-2.78056 -8.77068,-5.8141 0.80068,-1.48866 9.09774,4.2018 1.34579,-3.6788 -9.76048,-2.38174 -0.0885,-1.10872 10.24874,0.28637 -0.71705,-3.46974 -9.64166,1.98469 -0.26612,-1.14558 9.30227,-3.883629 -0.89607,-3.064724 -8.97333,5.755683 -1.20546,-1.007063 8.01905,-7.834387 -2.75548,-2.343785 -6.05498,9.214591 -1.16736,-0.151 4.2275,-10.389293 -3.55444,-1.124165 -1.73909,11.111561 -1.3985,-0.135879 -0.0963,-11.053186 -3.36383,0.154003 2.09615,10.877156 -1.12902,0.228566 -4.23715,-9.799638 -2.87449,1.471097 6.1216,8.831947 -1.03027,0.97567 -7.59558,-8.062108 -2.36884,2.947784 8.91213,5.891449 -0.52548,1.46878 -9.52195,-4.530582 -0.97777,3.790162 9.71318,1.86359 0.0452,1.97877 -10.05354,-0.14517 -0.073,3.47108 9.62588,-2.24374 z"
       id="path132329" />
    <ellipse
       style="fill:#9c8577;fill-opacity:1;stroke:#391009;stroke-width:0.7;stroke-linecap:square;stroke-miterlimit:4;stroke-dasharray:none;stroke-opacity:1"
       id="path137386"
       cx="151.78076"
       cy="104.19902"
       rx="4.7888923"
       ry="4.9120364" />
    <text
       xml:space="preserve"
       style="font-style:normal;font-variant:normal;font-weight:bold;font-stretch:normal;font-size:16.8542px;line-height:1.25;font-family:sans-serif;-inkscape-font-specification:'sans-serif, Bold';font-variant-ligatures:normal;font-variant-caps:normal;font-variant-numeric:normal;font-variant-east-asian:normal;letter-spacing:0px;word-spacing:0px;fill:#7e2034;fill-opacity:1;stroke:none;stroke-width:0.421357"
       x="82.664131"
       y="89.902054"
       id="text100261"
       transform="scale(1.2862957,0.77742622)"><tspan
         sodipodi:role="line"
         id="tspan100259"
         style="font-style:normal;font-variant:normal;font-weight:bold;font-stretch:normal;font-size:16.8542px;font-family:sans-serif;-inkscape-font-specification:'sans-serif, Bold';font-variant-ligatures:normal;font-variant-caps:normal;font-variant-numeric:normal;font-variant-east-asian:normal;fill:#7e2034;fill-opacity:1;stroke-width:0.421357"
         x="82.664131"
         y="89.902054">CASINO</tspan></text>
    <text
       xml:space="preserve"
       style="font-style:normal;font-weight:normal;font-size:5.82535px;line-height:1.25;font-family:sans-serif;letter-spacing:0px;word-spacing:0px;fill:#000000;fill-opacity:1;stroke:none;stroke-width:0.145634"
       x="127.45443"
       y="73.081734"
       id="text100661"
       transform="scale(0.91664757,1.0909318)"><tspan
         sodipodi:role="line"
         id="tspan100659"
         style="stroke-width:0.145634"
         x="127.45443"
         y="73.081734">PLACE BET &amp; THROW DICE</tspan></text>
    <text
       xml:space="preserve"
       style="font-style:normal;font-variant:normal;font-weight:normal;font-stretch:normal;font-size:5.29167px;line-height:1.25;font-family:sans-serif;-inkscape-font-specification:'sans-serif, Normal';font-variant-ligatures:normal;font-variant-caps:normal;font-variant-numeric:normal;font-variant-east-asian:normal;letter-spacing:0px;word-spacing:0px;fill:#7e2034;fill-opacity:1;stroke:none;stroke-width:0.128608"
       x="93.328766"
       y="161.78371"
       id="text101985"
       transform="scale(1.1977839,0.83487513)"><tspan
         sodipodi:role="line"
         id="tspan101983"
         style="font-style:normal;font-variant:normal;font-weight:normal;font-stretch:normal;font-size:5.29167px;font-family:sans-serif;-inkscape-font-specification:'sans-serif, Normal';font-variant-ligatures:normal;font-variant-caps:normal;font-variant-numeric:normal;font-variant-east-asian:normal;fill:#7e2034;fill-opacity:1;stroke-width:0.128608"
         x="93.328766"
         y="161.78371">3 OR UNDER - YOU LOSE</tspan></text>
    <text
       xml:space="preserve"
       style="font-style:normal;font-variant:normal;font-weight:normal;font-stretch:normal;font-size:5.29167px;line-height:1.25;font-family:sans-serif;-inkscape-font-specification:'sans-serif, Normal';font-variant-ligatures:normal;font-variant-caps:normal;font-variant-numeric:normal;font-variant-east-asian:normal;letter-spacing:0px;word-spacing:0px;fill:#7e2034;fill-opacity:1;stroke:none;stroke-width:0.132881"
       x="98.948013"
       y="163.66243"
       id="text102891"
       transform="scale(1.1566383,0.8645745)"><tspan
         sodipodi:role="line"
         id="tspan102889"
         style="font-style:normal;font-variant:normal;font-weight:normal;font-stretch:normal;font-size:5.29167px;font-family:sans-serif;-inkscape-font-specification:'sans-serif, Normal';font-variant-ligatures:normal;font-variant-caps:normal;font-variant-numeric:normal;font-variant-east-asian:normal;fill:#7e2034;fill-opacity:1;stroke-width:0.132881"
         x="98.948013"
         y="163.66243">4 OR OVER PAYS 2 TO 1</tspan></text>
    <path
       id="path152275"
       style="fill:#000000;fill-opacity:1;stroke:none;stroke-width:0.7;stroke-linecap:square;stroke-miterlimit:4;stroke-dasharray:none;stroke-opacity:1"
       d="m 151.75824,100.51836 a 0.37584475,0.40592631 0 0 0 -0.37621,0.40618 0.37584475,0.40592631 0 0 0 0.0879,0.26044 l 0.0109,2.20659 a 0.74816792,0.80120306 0 0 0 -0.45992,0.5023 l -2.34869,0.0119 a 0.40592631,0.37584475 0 0 0 -0.31523,-0.13901 0.40592631,0.37584475 0 0 0 -0.40618,0.3762 0.40592631,0.37584475 0 0 0 0.40618,0.37569 0.40592631,0.37584475 0 0 0 0.28267,-0.10646 l 2.39159,0.0176 a 0.74816792,0.80120306 0 0 0 0.45733,0.47439 l 0.0124,2.46652 a 0.37584475,0.40592631 0 0 0 -0.13901,0.31522 0.37584475,0.40592631 0 0 0 0.37621,0.40618 0.37584475,0.40592631 0 0 0 0.37569,-0.40618 0.37584475,0.40592631 0 0 0 -0.10646,-0.28267 l 0.0181,-2.52129 a 0.74816792,0.80120306 0 0 0 0.40101,-0.44183 l 2.43913,0.0176 a 0.40592631,0.37584475 0 0 0 0.25269,0.0811 0.40592631,0.37584475 0 0 0 0.40618,-0.37569 0.40592631,0.37584475 0 0 0 -0.40618,-0.37621 0.40592631,0.37584475 0 0 0 -0.26045,0.0879 l -2.41949,0.0119 a 0.74816792,0.80120306 0 0 0 -0.40204,-0.47129 l 0.016,-2.2381 a 0.37584475,0.40592631 0 0 0 0.0816,-0.2527 0.37584475,0.40592631 0 0 0 -0.37568,-0.40618 z" />
  </g>
</svg>
