<?xml version="1.0" encoding="UTF-8" standalone="no"?>
<!-- Created with Inkscape (http://www.inkscape.org/) -->

<svg
   width="150mm"
   height="100mm"
   viewBox="0 0 150 100"
   version="1.1"
   id="svg5"
   inkscape:version="1.1.1 (3bf5ae0d25, 2021-09-20)"
   sodipodi:docname="cooks.svg"
   xmlns:inkscape="http://www.inkscape.org/namespaces/inkscape"
   xmlns:sodipodi="http://sodipodi.sourceforge.net/DTD/sodipodi-0.dtd"
   xmlns="http://www.w3.org/2000/svg"
   xmlns:svg="http://www.w3.org/2000/svg">
  <sodipodi:namedview
     id="namedview7"
     pagecolor="#ffffff"
     bordercolor="#666666"
     borderopacity="1.0"
     inkscape:pageshadow="2"
     inkscape:pageopacity="0.0"
     inkscape:pagecheckerboard="0"
     inkscape:document-units="mm"
     showgrid="false"
     inkscape:zoom="0.9058367"
     inkscape:cx="169.45659"
     inkscape:cy="126.40247"
     inkscape:window-width="1920"
     inkscape:window-height="1016"
     inkscape:window-x="0"
     inkscape:window-y="1077"
     inkscape:window-maximized="1"
     inkscape:current-layer="layer1" />
  <defs
     id="defs2" />
  <g
     inkscape:label="Layer 1"
     inkscape:groupmode="layer"
     id="layer1"
     transform="translate(-37.209007,-44.409439)">
    <path
       style="fill:#c38b98;fill-opacity:1;stroke:none;stroke-width:0.303185px;stroke-linecap:butt;stroke-linejoin:miter;stroke-opacity:1"
       d="m 91.418433,106.09852 c 0.107195,5.38452 -0.933269,9.3989 1.560492,12.90878 1.03825,1.46129 1.561279,3.28803 3.594227,4.91321 1.12459,2.33235 2.874963,3.35469 5.138328,4.30323 1.06803,1.2051 2.88399,2.51823 5.42866,2.66215 1.09913,0.99996 6.3017,1.00139 6.48452,0.97039 1.66649,-0.28262 5.51166,-1.32382 8.25715,-3.8607 2.37435,-0.74583 5.11239,-1.71633 6.28954,-4.19851 3.28098,-2.775 4.64219,-6.61544 4.95458,-11.39741 l -0.041,-5.66327 c -5.73314,-3.36715 -9.36252,-7.225167 -12.62629,-9.721129 l 3.70006,-3.239189 5.97282,-4.644371 -5.00452,-4.998088 -2.58078,-1.204095 c -0.87164,-3.523245 -1.56837,-6.616244 -5.69609,-10.312694 l 2.29075,-2.957677 c -0.53781,-0.91293 -1.49667,-1.401931 -2.46854,-2.199909 -4.23162,-3.474434 -11.66155,-6.469275 -16.58112,-10.560647 l -0.308201,1.927907 0.192852,1.29331 v 0.861794 L 93.38563,58.032199 c 0,0 -0.560217,0.636915 -0.206114,1.282685 0.963798,1.757657 4.052284,4.816289 4.3094,4.88161 0.178722,0.0454 1.875667,1.891786 3.201814,3.79131 1.28267,1.837231 2.19883,3.730402 2.19883,3.730402 -0.93969,0.02953 -2.01312,0.900273 -3.277738,2.973547 -0.831623,3.504391 0.285057,4.506199 0.595478,6.135834 0.59473,1.19299 0.91116,1.717378 2.03275,3.021754 -0.89716,0.0256 -0.95714,-0.02935 -2.614643,1.274194 l -1.649577,-1.31996 -1.038514,4.845987 c 1.412232,2.675216 2.701177,5.345617 3.647204,8.002628 0.37209,1.614643 0.12503,2.455253 -0.17406,3.230813 -2.472312,1.453237 -3.672539,1.407677 -8.992027,6.215517 z"
       id="path2772"
       sodipodi:nodetypes="cscccccccccccccccscccccssscccccccccc" />
    <text
       xml:space="preserve"
       style="font-style:normal;font-variant:normal;font-weight:bold;font-stretch:normal;font-size:12.0952px;line-height:1.25;font-family:sans-serif;-inkscape-font-specification:'sans-serif, Bold';font-variant-ligatures:normal;font-variant-caps:normal;font-variant-numeric:normal;font-variant-east-asian:normal;letter-spacing:0px;word-spacing:0px;fill:#000000;fill-opacity:1;stroke:none;stroke-width:0.302378"
       x="81.87558"
       y="83.899948"
       id="text1360"
       transform="scale(0.90069357,1.1102555)"><tspan
         sodipodi:role="line"
         id="tspan1358"
         style="font-style:normal;font-variant:normal;font-weight:bold;font-stretch:normal;font-size:12.0952px;font-family:sans-serif;-inkscape-font-specification:'sans-serif, Bold';font-variant-ligatures:normal;font-variant-caps:normal;font-variant-numeric:normal;font-variant-east-asian:normal;stroke-width:0.302378"
         x="81.87558"
         y="83.899948">THOS. COOK</tspan></text>
    <text
       xml:space="preserve"
       style="font-style:normal;font-variant:normal;font-weight:bold;font-stretch:normal;font-size:12.0952px;line-height:1.25;font-family:sans-serif;-inkscape-font-specification:'sans-serif, Bold';font-variant-ligatures:normal;font-variant-caps:normal;font-variant-numeric:normal;font-variant-east-asian:normal;letter-spacing:0px;word-spacing:0px;fill:#000000;fill-opacity:1;stroke:none;stroke-width:0.302378"
       x="102.83541"
       y="97.812408"
       id="text2170"
       transform="scale(0.90069357,1.1102555)"><tspan
         sodipodi:role="line"
         id="tspan2168"
         style="font-style:normal;font-variant:normal;font-weight:bold;font-stretch:normal;font-size:12.0952px;font-family:sans-serif;-inkscape-font-specification:'sans-serif, Bold';font-variant-ligatures:normal;font-variant-caps:normal;font-variant-numeric:normal;font-variant-east-asian:normal;stroke-width:0.302378"
         x="102.83541"
         y="97.812408">&amp; SON</tspan></text>
    <text
       xml:space="preserve"
       style="font-style:normal;font-variant:normal;font-weight:bold;font-stretch:normal;font-size:14.3709px;line-height:1.25;font-family:Carlito;-inkscape-font-specification:'Carlito, Bold';font-variant-ligatures:normal;font-variant-caps:normal;font-variant-numeric:normal;font-variant-east-asian:normal;letter-spacing:0px;word-spacing:0px;fill:#873d50;fill-opacity:1;stroke:none;stroke-width:0.359273"
       x="58.121792"
       y="161.09406"
       id="text258082"
       transform="scale(1.2007502,0.83281268)"><tspan
         sodipodi:role="line"
         style="font-style:normal;font-variant:normal;font-weight:bold;font-stretch:normal;font-size:14.3709px;font-family:Carlito;-inkscape-font-specification:'Carlito, Bold';font-variant-ligatures:normal;font-variant-caps:normal;font-variant-numeric:normal;font-variant-east-asian:normal;fill:#873d50;fill-opacity:1;stroke-width:0.359273"
         x="58.121792"
         y="161.09406"
         id="tspan258084">DE CHANGE</tspan></text>
    <text
       xml:space="preserve"
       style="font-style:normal;font-variant:normal;font-weight:bold;font-stretch:normal;font-size:14.1931px;line-height:1.25;font-family:Carlito;-inkscape-font-specification:'Carlito, Bold';font-variant-ligatures:normal;font-variant-caps:normal;font-variant-numeric:normal;font-variant-east-asian:normal;letter-spacing:0px;word-spacing:0px;fill:#873d50;fill-opacity:1;stroke:none;stroke-width:0.354829"
       x="69.802368"
       y="77.241226"
       id="text258082-5"
       transform="scale(1.1858984,0.84324256)"><tspan
         sodipodi:role="line"
         style="font-style:normal;font-variant:normal;font-weight:bold;font-stretch:normal;font-size:14.1931px;font-family:Carlito;-inkscape-font-specification:'Carlito, Bold';font-variant-ligatures:normal;font-variant-caps:normal;font-variant-numeric:normal;font-variant-east-asian:normal;fill:#873d50;fill-opacity:1;stroke-width:0.354829"
         x="69.802368"
         y="77.241226"
         id="tspan258084-1">BUREAU</tspan></text>
  </g>
</svg>
