<?xml version="1.0" encoding="UTF-8" standalone="no"?>
<!-- Created with Inkscape (http://www.inkscape.org/) -->

<svg
   width="150mm"
   height="100mm"
   viewBox="0 0 150 100"
   version="1.1"
   id="svg310199"
   inkscape:version="1.1.1 (3bf5ae0d25, 2021-09-20)"
   sodipodi:docname="luck.svg"
   xmlns:inkscape="http://www.inkscape.org/namespaces/inkscape"
   xmlns:sodipodi="http://sodipodi.sourceforge.net/DTD/sodipodi-0.dtd"
   xmlns="http://www.w3.org/2000/svg"
   xmlns:svg="http://www.w3.org/2000/svg">
  <sodipodi:namedview
     id="namedview310201"
     pagecolor="#ffffff"
     bordercolor="#666666"
     borderopacity="1.0"
     inkscape:pageshadow="2"
     inkscape:pageopacity="0.0"
     inkscape:pagecheckerboard="0"
     inkscape:document-units="mm"
     showgrid="false"
     inkscape:zoom="1.2810466"
     inkscape:cx="317.31867"
     inkscape:cy="120.60451"
     inkscape:window-width="1920"
     inkscape:window-height="1016"
     inkscape:window-x="0"
     inkscape:window-y="1077"
     inkscape:window-maximized="1"
     inkscape:current-layer="layer1" />
  <defs
     id="defs310196" />
  <g
     inkscape:label="Layer 1"
     inkscape:groupmode="layer"
     id="layer1"
     transform="translate(-12.556875,-87.455505)">
    <text
       xml:space="preserve"
       style="font-style:normal;font-variant:normal;font-weight:bold;font-stretch:normal;font-size:17.893px;line-height:1.25;font-family:sans-serif;-inkscape-font-specification:'sans-serif, Bold';font-variant-ligatures:normal;font-variant-caps:normal;font-variant-numeric:normal;font-variant-east-asian:normal;letter-spacing:0px;word-spacing:0px;fill:#7d210a;fill-opacity:1;stroke:none;stroke-width:0.447325;stroke-opacity:1"
       x="39.48642"
       y="238.66843"
       id="text310780"
       transform="scale(1.316393,0.75965157)"><tspan
         sodipodi:role="line"
         id="tspan310778"
         style="font-style:normal;font-variant:normal;font-weight:bold;font-stretch:normal;font-size:17.893px;font-family:sans-serif;-inkscape-font-specification:'sans-serif, Bold';font-variant-ligatures:normal;font-variant-caps:normal;font-variant-numeric:normal;font-variant-east-asian:normal;fill:#7d210a;fill-opacity:1;stroke:none;stroke-width:0.447325;stroke-opacity:1"
         x="39.48642"
         y="238.66843">LUCK</tspan></text>
    <path
       style="fill:#2f5318;fill-opacity:1;stroke:none;stroke-width:0.297263px;stroke-linecap:butt;stroke-linejoin:miter;stroke-opacity:1"
       d="m 83.48557,136.33734 c 1.999486,-2.16363 2.454676,-4.66375 2.540095,-7.24537 0.985004,2.79793 1.460124,5.98703 3.56992,7.92204 l -1.324402,0.41065 c -1.143375,7.47014 -0.243281,17.08947 -1.140704,25.94296 -0.400481,1.95986 -1.308544,3.60825 -2.322941,5.1914 l -6.511522,-4.12004 c 9.977536,-8.41887 7.225011,-24.38344 5.189554,-28.10164 z"
       id="path325522"
       sodipodi:nodetypes="cccccccc" />
    <path
       style="fill:#2f5318;fill-opacity:1;stroke:none;stroke-width:0.297263px;stroke-linecap:butt;stroke-linejoin:miter;stroke-opacity:1"
       d="m 94.498491,135.60023 19.114889,15.20082 c -1.38909,2.21776 -2.73264,5.06198 -4.76192,6.70484 -14.611659,4.16631 -16.876788,-8.58042 -16.489032,-16.64973 l -0.825878,-2.80505 -1.940965,-1.0371 c 0.255078,-2.94863 2.844642,-1.70405 4.902906,-1.41378 z"
       id="path330707"
       sodipodi:nodetypes="ccccccc" />
    <path
       style="fill:#2f5318;fill-opacity:1;stroke:none;stroke-width:0.297263px;stroke-linecap:butt;stroke-linejoin:miter;stroke-opacity:1"
       d="m 91.786937,128.83834 2.013735,-0.24556 c -0.553687,-1.07912 0.616744,-1.72925 1.305002,-2.49936 5.119356,-1.07285 9.215136,-0.56579 15.637506,-3.34592 6.36009,-4.71469 9.03653,-11.20614 1.9573,-16.61071 -1.7446,-0.22346 -2.29852,-1.07058 -3.00999,-1.83518 L 93.459522,121.9457 c -1.049244,1.82418 -1.774136,3.9606 -1.672585,6.89264 z"
       id="path330709"
       sodipodi:nodetypes="cccccccc" />
    <path
       style="fill:#2f5318;fill-opacity:1;stroke:none;stroke-width:0.297263px;stroke-linecap:butt;stroke-linejoin:miter;stroke-opacity:1"
       d="m 86.454266,124.51036 c -1.576223,0.6655 -3.611258,-0.50713 -5.687813,-1.84609 l -17.455314,-18.86479 1.146748,-1.255 c 0.877701,-1.36968 2.13888,-2.823459 5.555975,-4.497709 11.539764,0.07012 12.256261,6.706169 13.493105,13.336579 -0.199353,1.77515 -0.313692,3.82082 0.238119,7.98631 0.332763,1.93758 1.38624,2.78952 2.685946,3.27053 z"
       id="path330711"
       sodipodi:nodetypes="ccccccccc" />
    <path
       style="fill:#2f5318;fill-opacity:1;stroke:none;stroke-width:0.297263px;stroke-linecap:butt;stroke-linejoin:miter;stroke-opacity:1"
       d="m 58.812529,149.8664 20.397515,-15.89068 c 2.141268,-2.55503 2.018729,-3.86552 2.67625,-5.35588 l -2.130223,-0.26562 c -0.09735,0.8696 -0.843017,1.73918 -1.661766,2.60878 -0.649535,1.20039 -7.099332,0.43159 -12.88745,-0.11256 -6.148612,-0.42778 -18.735548,8.69297 -6.394326,19.01596 z"
       id="path330713"
       sodipodi:nodetypes="ccccccc" />
    <path
       style="fill:#5c6c0a;fill-opacity:1;stroke:none;stroke-width:0.297263px;stroke-linecap:butt;stroke-linejoin:miter;stroke-opacity:1"
       d="m 91.786938,128.83834 2.013735,-0.24556 c 0.532453,0.73729 0.419055,1.14863 1.793641,2.31095 -0.825586,1.24156 10.498276,1.03966 15.975376,1.5324 5.32888,0.58347 9.71809,10.40105 3.64667,16.69452 l -1.60298,1.6704 -19.114889,-15.20082 -1.922518,-2.5169 c -0.602364,-1.51756 -0.659882,-2.87045 -0.789035,-4.24499 z"
       id="path341328"
       sodipodi:nodetypes="ccccccccc" />
    <path
       style="fill:#5c6c0a;fill-opacity:1;stroke:none;stroke-width:0.297263px;stroke-linecap:butt;stroke-linejoin:miter;stroke-opacity:1"
       d="m 86.431032,122.64019 c 2.652755,-0.28066 2.452124,-1.77782 2.950479,-2.97697 0.683849,-4.20172 0.40258,-4.7464 1.608329,-12.32568 0.45566,-5.10888 10.06353,-13.220162 16.90249,-5.62591 l 1.79816,2.58998 -16.230968,17.64409 c -1.261005,0.7554 -1.525531,1.35063 -4.283011,2.34658 l -2.722247,0.21808 z"
       id="path341330"
       sodipodi:nodetypes="ccccccccc" />
    <path
       style="fill:#5c6c0a;fill-opacity:1;stroke:none;stroke-width:0.297263px;stroke-linecap:butt;stroke-linejoin:miter;stroke-opacity:1"
       d="m 81.886294,128.61984 c -1.542796,-4.47696 -1.217089,-4.97289 -1.119841,-5.95557 L 63.311139,103.79948 c -9.236782,4.43669 -10.623612,15.7459 5.493775,20.19658 l 9.150639,1.445 c 1.143709,0.85616 2.079592,1.75624 1.800518,2.91316 z"
       id="path341332"
       sodipodi:nodetypes="ccccccc" />
    <path
       style="fill:#5c6c0a;fill-opacity:1;stroke:none;stroke-width:0.297263px;stroke-linecap:butt;stroke-linejoin:miter;stroke-opacity:1"
       d="m 58.812529,149.8664 c 2.350359,9.37304 16.841979,11.43283 20.59863,-3.23295 0.583735,-2.7418 8.26e-4,-6.28494 1.757967,-8.22075 l 2.316444,-2.07536 c -0.455373,-0.65729 -0.535043,-1.77666 -1.963049,-1.23776 -0.570792,0.0339 -1.280108,1.02698 -3.570793,-0.30277 z"
       id="path341334"
       sodipodi:nodetypes="ccccccc" />
    <path
       style="fill:#ddb700;fill-opacity:0.696931;stroke:none;stroke-width:0.297263px;stroke-linecap:butt;stroke-linejoin:miter;stroke-opacity:1"
       d="m 70.550199,112.32695 c 11.228677,-0.69559 21.832478,-1.47645 31.573161,-0.0901 2.36217,9.36617 2.50524,20.35612 2.49196,31.4605 -4.2524,1.19231 -8.780635,2.692 -12.080979,2.8234 l -0.523585,-3.56927 c 2.468074,-0.25452 4.911119,-0.49522 8.905094,-1.59223 0.82307,-7.16529 0.53393,-15.7987 -0.952435,-26.01245 -9.972871,-1.43062 -17.773918,-0.8527 -25.971229,-0.64126 -2.568736,9.51908 -2.734083,17.69603 -2.622909,25.71856 2.623749,1.2883 5.518705,1.86302 8.540264,2.10466 l -0.109485,4.13218 c -3.821719,-1.05083 -8.335663,-1.80004 -11.963158,-3.63122 0.235302,-10.48482 1.00606,-20.69755 2.713305,-30.70272 z"
       id="path355345"
       sodipodi:nodetypes="cccccccccccccc" />
  </g>
</svg>
